<?xml version="1.0" encoding="UTF-8"?>
<svg id="_レイヤー_1" data-name="レイヤー 1" xmlns="http://www.w3.org/2000/svg" viewBox="0 0 282.43 50">
  <defs>
    <style>
      .cls-1 {
        fill: red;
      }

      .cls-2 {
        stroke-width: .08px;
      }

      .cls-2, .cls-3 {
        stroke: #000;
        stroke-miterlimit: 10;
      }

      .cls-4 {
        fill: #ff0;
      }

      .cls-3 {
        stroke-width: 0px;
      }
    </style>
  </defs>
  <g id="logo">
    <g>
      <path class="cls-4" d="M25,49.75C11.35,49.75.25,38.65.25,25S11.35.25,25,.25s24.75,11.1,24.75,24.75-11.1,24.75-24.75,24.75Z"/>
      <path d="M25,.5c13.51,0,24.5,10.99,24.5,24.5s-10.99,24.5-24.5,24.5S.5,38.51.5,25,11.49.5,25,.5M25,0C11.19,0,0,11.19,0,25s11.19,25,25,25,25-11.19,25-25S38.81,0,25,0h0Z"/>
    </g>
    <circle class="cls-1" cx="25" cy="25" r="16.5"/>
    <polygon class="cls-1" points="25 1 19.13 14.39 30.87 14.39 25 1"/>
    <polygon class="cls-1" points="25 48.96 30.87 35.57 19.13 35.57 25 48.96"/>
    <polygon class="cls-1" points="49.39 25.04 36 19.17 36 30.91 49.39 25.04"/>
    <polygon class="cls-1" points=".61 25.04 14 30.91 14 19.17 .61 25.04"/>
    <circle class="cls-4" cx="25" cy="25" r="13.5"/>
    <path class="cls-1" d="M25,12c-7.18,0-13,5.82-13,13s5.82,13,13,13,13-5.82,13-13-5.82-13-13-13ZM25,36.37c-6.28,0-11.38-5.09-11.38-11.37s5.09-11.38,11.38-11.38,11.37,5.09,11.37,11.38-5.09,11.37-11.37,11.37Z"/>
    <path class="cls-2" d="M25.25,14.5v21c5.8,0,10.5-4.7,10.5-10.5s-4.7-10.5-10.5-10.5ZM27.35,32.88v-15.75c3.68.52,6.3,4.4,6.3,7.88s-2.62,6.82-6.3,7.88Z"/>
    <path class="cls-2" d="M22.65,29v3.88c-3.67-.52-6.3-4.4-6.3-7.88s2.62-6.83,6.3-7.88v8.87h2.1v-11.5c-5.8,0-10.5,4.7-10.5,10.5s4.7,10.5,10.5,10.5v-6.5h-2.1Z"/>
    <rect class="cls-3" x="21" y="24" width="3" height="8" transform="translate(-5.5 50.5) rotate(-90)"/>
  </g>
  <g>
    <path d="M67.04,11.78l.69.68c-1.22,2.37-2.06,4.43-2.52,6.18-1.07,4.12-1.11,8.24-.11,12.36.53,2.06,1.41,4.2,2.63,6.41l-.8.91c-1.07-1.3-1.95-2.67-2.63-4.12-2.37-4.8-2.82-9.73-1.37-14.77.46-1.67,1.1-3.24,1.95-4.69.46-.76,1.18-1.75,2.18-2.97Z"/>
    <path d="M74.57,29.29c-.84,1.23-1.68,2.29-2.52,3.21-1.07,1.07-1.41,1.11-1.03.11.15-.23.27-.42.34-.57,1.68-3.51,2.75-7.55,3.2-12.13h-3.09l-.46-.8h3.55v-7.32l3.78.34c.76.23.84.65.23,1.26l-.8.46v5.26h.46l1.15-2.29,2.06,2.18c.38.45.3.76-.23.91h-3.44v4.69c1.91.46,3.13,1.22,3.66,2.29.61,1.37.3,2.29-.92,2.75-.92.23-1.45-.15-1.6-1.15-.15-.99-.27-1.56-.34-1.71-.15-.46-.42-.88-.8-1.26v11.67c0,.46-.5.8-1.49,1.03-1.15.23-1.72,0-1.72-.69v-8.24ZM86.82,30.55c-1.98,1.99-3.85,3.59-5.61,4.81-.23.15-.65.42-1.26.8-1.53.91-1.72.76-.57-.46,2.75-2.36,5.04-5.83,6.87-10.42h-5.84l-.46-.8h6.87v-5.26h-2.4c-.38.68-.76,1.33-1.15,1.94-.38.69-.84,1.37-1.37,2.06-.15.23-.31.46-.46.69-.53.68-.73.53-.57-.46.99-2.82,1.68-6.14,2.06-9.96l3.09,1.26c.53.46.57.88.11,1.26l-.46.23c-.31.76-.61,1.49-.92,2.17h2.06v-6.75l3.66.46c.76.23.84.69.23,1.37l-.69.46v4.46h2.75l1.83-2.4,2.4,2.29c.38.46.3.76-.23.92h-6.75v5.26h3.78l1.95-2.63,2.4,2.4c.46.53.38.88-.23,1.03h-7.55c.38.69.72,1.3,1.03,1.83.69,1.07,1.6,2.1,2.75,3.09,1.37,1.22,2.98,2.29,4.81,3.2-1.3.62-2.29,1.57-2.98,2.86-1.53-1.45-2.67-2.74-3.44-3.89-.92-1.37-1.76-3.05-2.52-5.03v9.84c0,.46-.23.76-.69.91-.61.23-1.18.35-1.72.35s-.8-.35-.8-1.03v-6.87Z"/>
    <path d="M102.36,38.33l-.69-.8c1.22-2.36,2.06-4.35,2.52-5.95,1.14-4.04,1.18-8.24.11-12.59-.54-2.06-1.41-4.2-2.63-6.41l.8-.8c1.22,1.45,2.14,2.86,2.75,4.23,2.21,4.66,2.67,9.42,1.37,14.31-.46,1.61-1.11,3.21-1.95,4.81-.46.84-1.22,1.9-2.29,3.2Z"/>
    <path d="M134.64,18.53c1.22.76,2.36,1.68,3.44,2.74.76.77.95,1.3.57,1.61-.61.23-1.26.38-1.94.45-3.05,2.37-5.08,3.86-6.06,4.47-1.46.91-2.44,1.52-2.98,1.83-.22.08-.16-.12.23-.57,1.37-1.61,2.32-2.75,2.86-3.44.46-.61,1.26-1.83,2.4-3.66-2.06.39-3.9.77-5.5,1.15-1.22.3-2.22.57-2.98.8l-.11,2.63c-.08,2.14-.04,3.93.11,5.38.08.61.42.99,1.04,1.14.92.23,2.63.23,5.15,0,1.38-.07,2.33-.23,2.86-.46.23-.07.5-.19.8-.34.31-.07.58-.07.8,0,1.07.31,1.72.91,1.95,1.83.15.69-.08,1.14-.69,1.37-.45.23-1.06.35-1.83.35l-3.54.11c-3.13.07-5.35-.08-6.64-.46-1-.3-1.68-.8-2.06-1.48-.31-.54-.5-1.3-.58-2.29-.08-1.38-.11-3.7-.11-6.98-2.59.91-4.12,1.48-4.58,1.71-.69.39-1.15.54-1.37.46-.61-.3-1.34-.99-2.18-2.06-.69-1.14-.61-1.98.23-2.52.61.77,1.07,1.23,1.37,1.38.15.08,2.33-.35,6.53-1.26.15-4.19.19-6.33.11-6.41-.16-.38-.88-.84-2.17-1.37.15-.23.42-.5.8-.8.38-.31.83-.38,1.37-.23.62.15,1.34.46,2.18.91,1.14.62,1.79,1.15,1.94,1.61.08.3,0,.57-.22.8,0,.07-.23.27-.69.57-.15,1.37-.26,2.74-.34,4.12l5.72-1.15,2.98-.57,1.14-1.37ZM134.3,17.96c-.46.07-.88-.27-1.26-1.03-.54-1.3-1-2.14-1.38-2.52-.68-.61-.84-.95-.45-1.03.99.31,1.75.61,2.29.91.99.54,1.56,1.19,1.72,1.95.22.99-.08,1.57-.92,1.72ZM134.76,12.92c-1.22-.76-1.53-1.06-.92-.91.76,0,1.56.15,2.4.45,1.22.46,2.02.96,2.4,1.49.69.99.65,1.64-.11,1.95-.69.3-1.34,0-1.95-.92-.68-.99-1.3-1.67-1.83-2.06Z"/>
    <path d="M160.55,16.59c.76.69,1.45,1.3,2.06,1.83.84.77,1.14,1.34.91,1.72-.22.31-.76.5-1.6.57-1.07.92-2.1,1.76-3.09,2.52l-2.86,2.17.57.46c.54.46.46.84-.22,1.15h-.12v5.72c.08,1.53.12,2.63.12,3.32,0,.61-.08,1.06-.23,1.37-.69.76-1.57.76-2.63,0-.39-.31-.58-.8-.58-1.49,0-.23.04-.72.12-1.49.15-1.37.19-3.74.11-7.09l-2.52,1.37c-1.22.69-2.55,1.3-4,1.83-1.91.77-3.24,1.22-4,1.38-.69.15-.73-.04-.12-.58,1.07-.53,2.21-1.14,3.43-1.83,1.91-1.22,3.67-2.44,5.27-3.66,2.67-2.13,4.77-4,6.29-5.61-.99.08-2.06.23-3.2.46-.69.16-1.45.31-2.29.46-.61.16-1.64.46-3.09.92-.46.15-.84.15-1.15,0-.61-.23-1.25-.69-1.94-1.38-.38-.38-.61-.84-.69-1.37-.07-.92.08-1.45.46-1.6.46.53.88.95,1.26,1.26.46.38,1.37.45,2.75.23,1.52-.23,3.05-.42,4.58-.58,1.83-.23,3.51-.45,5.04-.68l1.37-1.38ZM157.12,16.7c-.92,1.07-1.76,1.26-2.52.57-.31-.3-.73-.99-1.26-2.06-.61-1.14-1.49-1.98-2.63-2.52-.54-.23-.12-.34,1.26-.34,3.12.15,4.88,1.11,5.26,2.86.15.61.12,1.11-.11,1.49ZM157.92,25.75l1.94.34c1.45.23,2.75.69,3.89,1.37,1.15.62,1.95,1.45,2.41,2.52.53,1.45.19,2.33-1.03,2.63-.84.16-1.57-.19-2.18-1.03-1.45-2.13-2.56-3.51-3.32-4.12-.45-.38-1.1-.76-1.94-1.14-.38-.38-.31-.57.23-.57Z"/>
    <path d="M188.86,19.11c.46.38,1.26,1.07,2.4,2.06.23.16.5.38.8.69.38.38.58.72.58,1.03,0,.53-.54.88-1.61,1.03l-1.83,2.63c-1.3,1.83-2.78,3.55-4.46,5.15-1.83,1.75-3.82,3.09-5.95,4-3.59,1.53-5.49,2.18-5.72,1.95-.15-.16,0-.35.46-.58,1.6-.84,2.9-1.6,3.89-2.29,2.9-2.06,5.42-4.81,7.55-8.24l1.14-1.83c.46-.76.81-1.45,1.03-2.06-4.04.3-6.9.61-8.58.91-1.68.31-3.39.77-5.15,1.38-.38.15-.65.19-.8.11-.38-.15-.99-.72-1.83-1.72-.61-.68-.88-1.29-.8-1.83.07-.61.3-.99.69-1.14.23.31.57.73,1.03,1.26.3.3.76.42,1.37.34.61-.07,1.22-.15,1.83-.23,4.96-.61,9.19-1.06,12.71-1.37l1.26-1.26ZM185.77,13.04c1.15.38,1.95.72,2.4,1.03.99.61,1.26,1.25.81,1.94-.16.23-1.3.34-3.44.34-1.14,0-2.78.12-4.92.35-1.07.15-2.4.38-4,.68-.62.16-1.07.12-1.38-.11-.68-.46-1.25-.99-1.71-1.6-.46-.92-.39-1.6.23-2.06.76.76,1.33,1.18,1.71,1.26.53.07,1.11.07,1.72,0,.53-.08,1.1-.15,1.72-.23,2.29-.23,4.08-.46,5.38-.69l1.49-.91Z"/>
    <path d="M201.98,21.97c-.46,2.67-1.07,4.88-1.83,6.64-1.15,2.52-2.71,4.62-4.69,6.29-.92.84-1.72,1.49-2.41,1.95-.38.15-.45.03-.22-.35l.8-1.03c.76-.99,1.41-1.98,1.94-2.97.84-1.6,1.45-3.21,1.83-4.81.46-1.9.73-3.35.8-4.35l.12-1.71c.07-1.15-.27-1.87-1.03-2.18l-.8-.34c.61-.61,1.18-.95,1.71-1.03.31-.07.65,0,1.03.23.53.31.92.53,1.15.69,1.29.76,2.02,1.3,2.17,1.6.23.38.04.84-.57,1.37ZM204.85,32.96l.11-6.18v-9.96c0-.46-.19-.8-.57-1.03-.3-.15-.76-.38-1.37-.68.23-.31.69-.61,1.37-.92.69-.23,1.41-.04,2.18.57.91.54,1.64,1,2.17,1.38.53.53.34,1.18-.57,1.94-.08.99-.16,2.86-.23,5.61l-.12,7.44c4.2-2.37,7.9-5.23,11.1-8.59.23-.23.42-.23.58,0,.15.23-.31,1.03-1.38,2.41-.91,1.22-1.56,2.02-1.94,2.4-1.91,2.44-4.54,5.03-7.9,7.78-.53,1.75-1.14,2.17-1.83,1.26-.23-.23-.46-.46-.68-.69l-2.18-1.94c.38-.31.8-.58,1.26-.8Z"/>
    <path d="M227.19,17.5c.07.76.07,1.41,0,1.94-.23,1.15-.73,1.88-1.49,2.18-.92.38-1.6.23-2.06-.46-.54-.76-.46-1.49.23-2.17,1.07-1.07,1.71-1.99,1.94-2.75.08-.61.15-.99.23-1.14.31-.16.65.38,1.03,1.6h7.55v-2.29h-6.64l-.23-.8h14.08l1.83-2.29,2.64,2.17c.53.46.45.77-.23.92h-8.47v2.29h8.47l1.26-1.6,2.51,2.63c.31.38.42.68.35.91,0,.23-.23.39-.69.46l-1.37.12c-1.23,1.07-2.03,1.64-2.41,1.71-.38.16-.5-.07-.34-.69.23-.83.46-1.75.69-2.74h-8.47v5.95c0,.53-.23.84-.69.91-.84.16-1.45.2-1.83.12-.3-.08-.46-.34-.46-.8v-6.18h-7.44ZM225.82,23.23v-.8h5.38l1.15-1.6,1.83,1.71c.3.31.23.54-.23.69h-8.13ZM229.03,32.73v1.26c0,.45-.08.72-.23.8-.16.15-.73.34-1.72.57-.84.15-1.26-.15-1.26-.92v-10.42l3.67,1.26h13.28l1.26-1.49,2.63,2.29c.53.46.46.88-.23,1.26l-.23.11v5.27c0,.53-.08.84-.23.91-.46.23-.95.39-1.49.46-.99.23-1.48.08-1.48-.46v-.91h-5.5v1.71c-.07.46-.04.73.12.8.23.16.65.23,1.26.23h5.03c.76-.07,1.33-.15,1.72-.23.61-.15,1.03-.49,1.26-1.03.38-.76.84-1.87,1.37-3.32.23-.61.46-.73.69-.35,0-.07-.04.42-.12,1.49-.07,1.07-.11,1.91-.11,2.52,0,.38.19.68.57.91.46.31.69.61.69.92,0,.68-.54,1.14-1.61,1.37-.61.15-1.33.23-2.17.23-2.75.07-5.65.07-8.7,0-1.29,0-2.13-.15-2.51-.46-.46-.3-.69-.99-.69-2.06v-2.74h-5.26ZM227.54,20.36v-.8h3.66l1.03-1.49,1.83,1.6c.38.39.35.62-.11.69h-6.41ZM229.03,28.72h5.26v-2.63h-5.26v2.63ZM229.03,29.52v2.41h5.26v-2.41h-5.26ZM237.49,26.09v2.63h5.5v-2.63h-5.5ZM237.49,29.52v2.41h5.5v-2.41h-5.5ZM238.3,20.36v-.8h3.32l1.03-1.37,2.18,1.48c.46.39.42.62-.12.69h-6.41ZM238.3,23.23v-.8h5.15l1.15-1.6,2.4,1.71c.46.31.38.54-.23.69h-8.47Z"/>
    <path d="M263.77,15.44l2.64,2.17c.53.46.45.77-.23.92h-11.33l-.34-.8h7.67l1.6-2.29ZM255.65,14.87v-.8h5.26l1.38-1.95,2.4,1.95c.46.38.38.65-.23.8h-8.81ZM262.63,19.56l2.17,1.83c.46.38.42.65-.11.8h-9.04v-.8h5.61l1.37-1.83ZM255.65,25.75v-.8h5.72l1.37-1.83,2.29,1.83c.38.38.31.65-.23.8h-9.16ZM258.4,35.7v1.49c0,.46-.16.72-.46.8-1.07.23-1.68.3-1.83.23-.31-.08-.46-.27-.46-.57v-10.53l2.86,1.49h3.32l.8-1.49,2.29,2.06c.46.38.42.88-.12,1.49l-.22.23v5.15c0,.38-.2.64-.58.8-.61.22-1.18.3-1.71.22-.31,0-.46-.19-.46-.57v-.8h-3.43ZM258.4,34.9h3.43v-5.49h-3.43v5.49ZM277.97,27.69c-.61,1.15-1.07,1.95-1.37,2.41-.76,1.07-1.37,1.9-1.83,2.51,1.75,1,4.31,1.87,7.67,2.63-1.38,1.22-2.26,2.33-2.64,3.32-1.07-.38-2.21-.91-3.43-1.6-1.3-.76-2.44-1.64-3.43-2.63-1.3.99-2.44,1.72-3.43,2.17-1.38.61-2.56,1.07-3.55,1.38l-1.15.34c-.45.15-.95.23-1.48.23-.16-.23-.04-.42.34-.57,1.9-.92,3.55-1.87,4.92-2.86.99-.69,1.91-1.61,2.75-2.75-.62-.76-1.15-1.75-1.61-2.98-.3-.91-.57-1.83-.8-2.74h-3.09l-.34-.8h9.84l1.03-1.6,2.52,2.17c.69.61.57,1.03-.34,1.26l-.58.11ZM270.75,14.87v1.6c0,2.06-.3,3.66-.91,4.8-.54,1.07-1.37,2.03-2.52,2.87-.84.61-1.37.95-1.6,1.03-.38.07-.46-.12-.23-.58.84-.99,1.41-1.83,1.72-2.51.53-1.07.8-3.13.8-6.18v-3.09l3.09,1.26h2.4l1.03-1.72,2.75,2.29c.68.61.61,1.03-.23,1.26l-.46.11v3.66c0,.84.27,1.22.8,1.15.99,0,1.6-.19,1.83-.58.38-.76.88-1.94,1.49-3.54.53-.53.69-.19.46,1.03-.08,1.22-.12,2.06-.12,2.51.08.23.23.42.46.58.23.23.38.38.46.45.3.69.07,1.19-.69,1.49-.69.31-1.45.46-2.29.46-1.75.08-3.05.08-3.89,0-.53-.07-.88-.23-1.03-.46s-.23-.68-.23-1.37v-6.52h-3.09ZM269.61,26.55c.3.76.65,1.49,1.03,2.17.61,1,1.22,1.76,1.83,2.29,1.15-1.68,2.02-3.16,2.63-4.46h-5.49Z"/>
  </g>
</svg>